<svg xmlns="http://www.w3.org/2000/svg" viewBox="0 0 64 64">
  <defs>
    <radialGradient id="bg" cx="50%" cy="38%" r="72%">
      <stop offset="0%" stop-color="#3a1a38"/>
      <stop offset="55%" stop-color="#241026"/>
      <stop offset="100%" stop-color="#120a2e"/>
    </radialGradient>
    <radialGradient id="glow" cx="42%" cy="32%" r="66%">
      <stop offset="0%" stop-color="#ffffff" stop-opacity=".9"/>
      <stop offset="28%" stop-color="#83a8ff" stop-opacity=".9"/>
      <stop offset="62%" stop-color="#643cff" stop-opacity=".95"/>
      <stop offset="100%" stop-color="#ff58b8"/>
    </radialGradient>
    <filter id="soft" x="-35%" y="-35%" width="170%" height="170%">
      <feGaussianBlur stdDeviation="1.6"/>
    </filter>
  </defs>
  <rect width="64" height="64" rx="16" fill="url(#bg)"/>
  <circle cx="32" cy="31" r="20" fill="#8e6bff" opacity=".28" filter="url(#soft)"/>
  <g fill="url(#glow)">
    <circle cx="32" cy="32" r="14"/>
    <circle cx="24" cy="28" r="7"/>
    <circle cx="39" cy="26" r="7"/>
    <circle cx="44" cy="35" r="7"/>
    <circle cx="35" cy="43" r="7"/>
    <circle cx="25" cy="40" r="7"/>
    <circle cx="30" cy="22" r="6"/>
    <circle cx="20" cy="34" r="6"/>
    <circle cx="41" cy="42" r="5"/>
    <circle cx="47" cy="29" r="5"/>
    <circle cx="34" cy="18" r="5"/>
  </g>
  <path d="M22 22c5-5 16-6 22 2" fill="none" stroke="#ffffff" stroke-width="3" stroke-linecap="round" opacity=".5"/>
  <circle cx="25" cy="27" r="3" fill="#ffffff" opacity=".72"/>
</svg>
